<svg width="357" height="251" viewBox="0 0 357 251" fill="none" xmlns="http://www.w3.org/2000/svg">
<path fill-rule="evenodd" clip-rule="evenodd" d="M40.7127 113.905C43.3493 111.867 41.3378 111.818 44.5525 110.911C45.1019 110.752 45.6153 111.001 46.1772 111.08C48.8862 111.468 51.4337 111.727 54.0794 112.411C56.5938 113.07 58.9882 114.136 61.4397 115.007C88.9794 124.741 117.3 132.125 145.837 136.863C174.486 141.629 203.331 143.593 232.114 141.312C257.409 139.312 282.457 134.08 307.443 125.265C323.456 119.615 339.441 113.003 355.244 104.095C355.522 103.909 355.907 103.984 356.093 104.262C356.279 104.54 356.204 104.926 355.926 105.112C337.586 119.503 318.734 131.169 298.88 139.597C267.011 153.127 233.512 159.001 200.011 159.52C179.804 159.828 159.51 157.948 139.478 154.251C109.949 148.803 80.9694 139.289 53.0216 127.593C51.7851 127.079 50.5061 126.663 49.3319 126.021C46.4703 124.46 43.9061 122.766 41.4565 120.625C41.153 120.363 40.8771 120.185 40.7113 119.82C39.3634 116.857 40.5326 118.339 40.1936 115.102C39.8587 114.96 39.7099 114.573 39.8489 114.247C39.9908 113.912 40.3778 113.763 40.7043 113.902L40.7127 113.905Z" fill="white"/>
<path fill-rule="evenodd" clip-rule="evenodd" d="M42.2164 113.192C55.4715 123.959 69.5598 133.897 83.5917 143.89C97.9579 154.138 112.195 164.435 126.903 173.761C127.406 174.259 128.028 174.573 128.357 175.199C130.352 179.036 128.922 178.708 129.559 182.99C129.914 183.186 130.042 183.631 129.844 183.994C129.649 184.348 129.204 184.477 128.841 184.279C124.874 186.024 125.948 187.099 121.628 187.49C120.867 187.559 120.229 187.127 119.488 186.941C111.698 183.246 103.939 179.515 96.2851 175.39C84.883 169.234 73.702 162.593 62.8769 155.399C50.8032 147.37 39.3277 138.489 28.1271 129.486C25.0864 126.994 17.7559 124.559 15.4997 121.876C12.2266 117.979 10.3438 113.675 12.4378 110.182C13.5625 108.302 13.4503 105.498 16.5617 104.565C18.3165 104.489 18.9333 103.334 22.8473 103.421C23.7369 103.444 24.6833 102.859 25.8266 102.574C34.3339 100.476 52.2922 98.0385 72.1129 95.7856C87.4817 94.0381 103.901 92.0029 117.811 90.9743C132.129 89.9256 143.639 89.7726 148.436 89.5155C149.326 89.3976 150.143 90.0208 150.263 90.9029C150.381 91.7934 149.758 92.6096 148.876 92.7303C144.186 93.7714 133 96.4642 118.888 99.1621C97.195 103.293 68.8566 107.51 48.9397 111.833C46.5976 112.345 44.337 112.782 42.208 113.189L42.2164 113.192ZM32.2748 109.42C30.589 108.716 29.5811 107.86 30.3072 106.686C31.1434 105.326 31.8101 107.571 32.2748 109.42ZM32.0346 115.516C31.8181 116.152 31.6071 116.828 31.4964 117.566C31.3888 118.268 30.0487 117.756 29.8839 118.654C29.862 119.048 28.8665 118.953 28.3603 118.902C28.2723 118.639 27.6361 117.871 28.089 117.473C28.9693 116.698 30.3133 116.071 32.0317 115.524L32.0346 115.516Z" fill="white"/>
<path d="M29.756 116.61L33.4776 118.473L32.9864 119.203C32.3087 118.833 30.1371 117.936 30.9551 116.821C31.0933 116.635 31.2982 116.527 31.4892 116.405C31.8936 116.15 31.6942 115.802 31.4246 115.495C31.0215 115.059 30.6065 114.74 30.4757 114.135C30.4048 113.821 30.7369 113.504 31.0495 113.629C31.6999 113.888 35.179 115.117 33.8319 116.276C33.5704 116.495 33.2177 116.516 32.8929 116.564C32.3832 116.634 31.8791 116.715 31.3694 116.785C30.3164 116.941 29.2663 117.088 28.2133 117.244L28.5577 116.726C28.7412 117.396 29.5145 117.705 30.0582 118.03C30.6325 118.375 31.1786 118.776 31.4295 119.412C31.5563 119.726 31.3558 120.041 31.0088 120.045C29.87 120.041 28.7404 119.9 27.634 119.636L28.1054 118.937C28.3557 119.19 28.6349 119.303 28.9845 119.32L28.7112 120.124L28.0788 119.647C27.8421 119.464 27.8326 119.162 28.0353 118.95C28.3196 118.664 28.6619 118.509 29.032 118.382C29.447 118.234 30.0073 118.125 30.1751 117.659C30.5763 116.534 29.1735 115.739 28.4294 115.234C27.8916 114.864 26.9617 114.081 27.7518 113.434C28.1903 113.078 28.8241 112.836 29.3237 112.575C29.9047 112.268 30.4774 111.958 31.0612 111.643L30.8619 112.229C30.6664 111.705 30.2657 111.316 29.7011 111.218C29.3908 111.168 29.1522 110.826 29.3638 110.533C29.9788 109.686 30.7189 108.966 31.5758 108.369L31.7225 109.12L30.6369 108.63C30.2713 108.468 30.2274 107.855 30.6895 107.788C31.8545 107.604 32.9647 107.253 34.0227 106.725L34.1884 107.557C32.9167 107.311 31.6357 107.231 30.3508 107.327L30.4064 106.449L31.4641 106.444C31.951 106.441 32.0244 107.27 31.5233 107.314C30.8654 107.38 30.2239 107.508 29.6041 107.736C29.0798 107.932 28.6843 107.143 29.2171 106.951C29.9125 106.692 30.6158 106.52 31.3493 106.451L31.4085 107.322L30.3508 107.327C29.7716 107.326 29.8606 106.487 30.4064 106.449C31.6997 106.355 32.9807 106.436 34.244 106.678C34.6464 106.759 34.8391 107.292 34.4097 107.51C33.2928 108.074 32.0986 108.454 30.8635 108.65L30.916 107.809L32.0016 108.299C32.2695 108.418 32.4545 108.836 32.1482 109.05C31.3447 109.599 30.6637 110.255 30.0883 111.041L29.751 110.356C30.6175 110.501 31.3279 111.023 31.6532 111.853C31.7442 112.081 31.6812 112.321 31.4539 112.44C30.9065 112.73 30.3592 113.021 29.8174 113.323C29.5311 113.478 29.2364 113.63 28.95 113.785C28.8237 113.854 28.6946 113.932 28.5627 113.99C28.2541 114.128 28.3583 114.014 28.4081 114.115C28.516 114.319 28.9039 114.498 29.085 114.625C29.2912 114.761 29.5059 114.899 29.7064 115.051C30.102 115.345 30.4778 115.669 30.7356 116.093C31.1484 116.775 31.28 117.707 30.7976 118.385C30.2615 119.137 29.2298 119.01 28.6273 119.628L28.5839 118.931L29.2162 119.408C29.5589 119.664 29.3877 120.223 28.9429 120.212C28.3526 120.189 27.8615 119.956 27.4555 119.529C27.1301 119.194 27.5386 118.735 27.9269 118.829C28.9635 119.079 30.0093 119.191 31.0726 119.198L30.6519 119.83C30.3679 119.126 29.6114 118.822 29.0009 118.447C28.3903 118.071 27.8948 117.631 27.706 116.922C27.6485 116.707 27.8235 116.439 28.0504 116.404C29.4254 116.208 30.8032 116.003 32.1782 115.807C32.3743 115.78 32.9925 115.804 33.1136 115.667C33.1615 115.609 33.1945 115.704 33.0134 115.577C32.9075 115.504 32.7792 115.441 32.6621 115.374C32.0485 115.034 31.4179 114.745 30.7674 114.487L31.3412 113.981C31.4528 114.505 32.0108 114.788 32.3077 115.206C32.6046 115.625 32.7583 116.135 32.5457 116.596C32.4494 116.797 32.2975 116.941 32.112 117.074C31.9266 117.208 31.7081 117.245 31.7518 117.419C31.7956 117.593 32.3816 117.848 32.5211 117.933C32.8389 118.125 33.168 118.312 33.4915 118.487C33.9963 118.762 33.4885 119.458 33.0003 119.217L29.2787 117.354C28.7766 117.099 29.2733 116.381 29.7699 116.624L29.756 116.61Z" fill="white"/>
</svg>
